<?xml version="1.0" standalone="no"?>
<!DOCTYPE svg PUBLIC "-//W3C//DTD SVG 20010904//EN"
 "http://www.w3.org/TR/2001/REC-SVG-20010904/DTD/svg10.dtd">
<svg version="1.0" xmlns="http://www.w3.org/2000/svg"
 width="256.000000pt" height="256.000000pt" viewBox="0 0 256.000000 256.000000"
 preserveAspectRatio="xMidYMid meet">
<metadata>
Created by potrace 1.11, written by Peter Selinger 2001-2013
</metadata>
<g transform="translate(0.000000,256.000000) scale(0.100000,-0.100000)"
fill="#000000" stroke="none">
<path d="M440 2165 l0 -355 153 0 154 0 -9 -55 c-22 -145 -96 -249 -199 -279
-29 -9 -63 -16 -76 -16 -23 0 -23 -2 -23 -111 l0 -112 73 7 c98 9 244 49 324
89 170 84 273 251 302 492 6 50 11 226 11 393 l0 302 -355 0 -355 0 0 -355z"/>
<path d="M1412 2168 l3 -353 151 -3 151 -3 -9 -54 c-23 -147 -95 -248 -197
-279 -30 -9 -65 -16 -78 -16 -23 0 -23 -2 -23 -110 l0 -110 34 0 c61 0 204 30
285 59 155 57 247 138 313 279 66 140 71 172 75 580 l5 362 -356 0 -356 0 2
-352z"/>
</g>
</svg>
