<?xml version="1.0" standalone="no"?>
<!DOCTYPE svg PUBLIC "-//W3C//DTD SVG 20010904//EN"
 "http://www.w3.org/TR/2001/REC-SVG-20010904/DTD/svg10.dtd">
<svg version="1.0" xmlns="http://www.w3.org/2000/svg"
 width="512.000000pt" height="512.000000pt" viewBox="0 0 512.000000 512.000000"
 preserveAspectRatio="xMidYMid meet">
<metadata>
Created by potrace 1.14, written by Peter Selinger 2001-2017
</metadata>
<g transform="translate(0.000000,512.000000) scale(0.100000,-0.100000)"
fill="#000000" stroke="none">
<path d="M930 2555 l0 -805 86 0 85 0 -3 714 c-2 393 -2 714 -2 713 1 -1 121
-315 267 -697 146 -382 269 -703 272 -713 6 -15 18 -17 83 -15 l76 3 271 702
c148 386 274 705 279 710 4 4 6 -14 2 -42 -3 -27 -8 -348 -12 -712 l-7 -663
97 0 96 0 0 805 0 805 -139 0 -138 0 -198 -512 c-295 -764 -317 -819 -322
-814 -2 2 -118 300 -257 663 l-252 658 -142 3 -142 3 0 -806z"/>
<path d="M2960 2555 l0 -807 358 5 c392 4 419 8 535 69 76 41 159 131 188 205
20 49 24 76 24 178 0 102 -3 127 -22 167 -46 101 -153 181 -278 209 -63 14
-70 24 -21 32 60 10 146 59 192 110 82 92 106 253 59 390 -24 68 -101 148
-173 180 -115 52 -170 59 -529 64 l-333 5 0 -807z m675 621 c78 -21 134 -61
164 -116 37 -65 35 -176 -3 -254 -53 -108 -144 -136 -448 -136 l-198 0 0 266
0 266 213 -5 c154 -3 228 -9 272 -21z m-3 -680 c173 -37 244 -126 237 -299 -6
-138 -60 -213 -184 -259 -54 -20 -83 -22 -297 -26 l-238 -4 0 301 0 301 208 0
c139 0 229 -5 274 -14z"/>
</g>
</svg>
